<svg xmlns="http://www.w3.org/2000/svg" width="145" height="34" style=""><rect id="backgroundrect" width="100%" height="100%" x="0" y="0" fill="none" stroke="none"/>
    
<g class="currentLayer" style=""><title>Layer 1</title><g fill="#ffffff" fill-rule="nonzero" id="svg_1" class="selected" fill-opacity="1" stroke="#dadada" stroke-opacity="1">
        <path d="M21.683 33.655h-9.711C5.36 33.655 0 28.295 0 21.683v-9.711C0 5.36 5.36 0 11.972 0h9.711c6.612 0 11.972 5.36 11.972 11.972v9.711c0 6.612-5.36 11.972-11.972 11.972zm-2.332-16.023c0 1.504-1.398 3.108-2.423 4.032-1.331-1.264-2.423-2.696-2.423-4.032 0-2.05 1.604-3.96 2.356-4.645.814.752 2.418 2.97 2.49 4.645zm9.357-.752a11.8 11.8 0 0 0-3.687-8.677 11.929 11.929 0 1 0-11.785 20.05 1.37 1.37 0 0 0 1.676-.751 1.398 1.398 0 0 0-.685-1.777l-.412-.172a9.343 9.343 0 0 1-6.225-8.845 9.247 9.247 0 0 1 8.744-9.099 8.96 8.96 0 0 1 6.839 2.543 9.175 9.175 0 0 1 2.873 6.661c0 3.209-2.117 6.489-4.31 7.753a1.106 1.106 0 0 1-1.025 0c-.507-.24-1.077-.685-1.772-1.101 1.265-1.197 3.041-3.314 3.041-5.747 0-2.768-3.448-7.58-5.224-7.58-1.676 0-5.124 4.645-5.124 7.58 0 4.44 5.746 8.06 7.753 9.257.819.512 1.743.924 2.595.58.58-.34.925-.513 1.437-.853a11.373 11.373 0 0 0 5.291-9.822zM52.796 8.423c2.519 0 2.92-2.614 2.92-4.228 0 0-1.086.479-3.452.479h-10.88c-4.228 0-3.515 4.76-3.515 4.76s.216-1.087 2.984-.996h3.917v16.87c0 1.993 3.764 1.993 3.764 1.993V8.423h4.262zm9.515 10.483c-.685 1.619-5.746.776-5.746 3.515 0 1.37.996 2.145 2.767 2.145a9.252 9.252 0 0 0 2.984-.527l-.005-5.133zm-.216-3.141c0-1.15-.622-2.146-2.983-2.146-2.605-.005-5 .93-5 3.51a4.707 4.707 0 0 1-1.149-3.079c0-2.768 3.606-3.515 6.125-3.515 4.53 0 6.997 1.916 6.997 5.383v11.411a5.435 5.435 0 0 0-2.366-.479c-1.523 0-3.08.527-4.822.527-3.233 0-6.283-1.211-6.283-4.913-.034-5.77 8.236-4.267 9.481-6.704v.005zm17.542.56v8.892c0 1.916 3.83 1.993 3.83 1.993V15.717c0-4.076-3.232-5.134-6.373-5.134-1.681 0-3.08.685-4.602.685a5.895 5.895 0 0 1-2.768-.685v14.634c0 1.993 3.668 1.993 3.668 1.993V14.175a14.242 14.242 0 0 1 3.295-.48c2.207 0 2.954.901 2.954 2.615l-.004.015zm7.465 8.892c0 1.993 3.831 1.993 3.831 1.993V12.776c0-1.992-3.515-1.992-3.83-1.992v14.433zm3.975-18.513a2.083 2.083 0 1 0-2.083 2.083 2.193 2.193 0 0 0 2.083-2.083zM106.88 25.27c0 1.992 3.764 1.992 3.764 1.992V6.556c0-1.992-3.764-1.992-3.764-1.992v9.673h-8.141V6.575c0-1.992-3.668-1.992-3.668-1.992V25.28c0 1.992 3.668 1.992 3.668 1.992v-9.956h8.14v7.954zm10.822-3.453v-8.95c0-1.915-3.764-1.992-3.764-1.992v11.417c0 3.979 3.08 5.07 6.283 5.07 1.681 0 3.08-.622 4.511-.622a6.345 6.345 0 0 1 2.768.623V12.867c0-1.992-3.764-1.992-3.764-1.992V23.91a13.164 13.164 0 0 1-3.141.479c-2.146 0-2.874-.934-2.874-2.552l-.019-.02zm17.072 2.146a6.297 6.297 0 0 0 2.615.479c2.519 0 3.452-.934 3.452-2.921v-4.454c0-1.992-1.307-2.921-2.767-2.921-1.681 0-3.295 1.087-3.295 2.519v7.307l-.005-.01zm9.846-1.671c0 3.452-2.457 5.07-7.121 5.07-1.46 0-2.304-.31-3.515-.478-.776-.062-1.916-.153-2.921.479V4.722c.311 0 3.764 0 3.764 2.303v5.129s1.15-.996 3.668-.996c3.295 0 6.125 1.834 6.125 5.224v5.91z" id="svg_2" fill="#ffffff" fill-opacity="1" stroke="#dadada" stroke-opacity="1"/>
    </g></g></svg>